<?xml version="1.0" encoding="UTF-8"?>
<svg id="Layer_1" data-name="Layer 1" xmlns="http://www.w3.org/2000/svg" viewBox="0 0 512 512">
  <defs>
    <style>
      .cls-1 {
        fill: #fff;
      }

      .cls-2 {
        fill: #dba159;
      }
    </style>
  </defs>
  <path class="cls-2" d="m256,464.48c82.78,0,149.89-8.98,149.89-20.06,0-10-54.63-18.28-126.11-19.81-3.57,4.86-7.14,9.71-10.69,14.57-3.35,4.59-7.84,7.16-12.65,7.24-.08,0-.15,0-.23,0-4.75,0-9.26-2.43-12.72-6.86-3.94-5.05-7.79-10.03-11.55-14.95-71.34,1.54-125.82,9.82-125.82,19.8,0,11.08,67.11,20.06,149.89,20.06Z"/>
  <path class="cls-2" d="m124.05,134.54c-12.4,27.55-15.33,54.75-8.74,80.83,7.3,28.88,21,55.49,33.44,77.71,25.25,45.1,56.36,90.86,97.88,144.01,2.69,3.44,6.08,5.32,9.58,5.32.05,0,.11,0,.16,0,3.52-.06,6.89-2.05,9.48-5.6,4.41-6.03,8.84-12.05,13.26-18.07,16.25-22.11,33.06-44.98,48.85-67.96,26.13-38.06,45.63-73.06,59.63-107,11.42-27.68,14.92-51.49,11.01-74.94-8.78-52.27-45.12-95.7-94.85-113.34-14.92-5.3-30.81-7.99-46.83-7.99-6.97,0-13.96.51-20.9,1.54-.95.14-1.89.28-2.82.46-51.32,9.46-88.04,38.07-109.14,85.03Zm131.95-63.48c58.84,0,106.53,47.7,106.53,106.54,0,24.11-8.03,46.35-21.55,64.2.16.38.33.76.47,1.15.25.66.13,1.39-.3,1.94-1.27,1.6-2.59,3.18-3.94,4.71-19.69,22.19-46.81,35.13-76.37,36.43-.13,0-.26.01-.4.01-.42.02-.93.04-1.44.05-.98.03-1.99.04-3,.04s-2.02,0-3.02-.04c-.49,0-1-.03-1.5-.05-.07,0-.18,0-.31-.01-31.38-1.3-60.18-14.99-81.09-38.54-.47-.54-.63-1.29-.4-1.96l.59-1.76c.09-.28.2-.58.32-.87.14-.36.29-.72.44-1.08-13.53-17.85-21.57-40.1-21.57-64.21,0-58.84,47.7-106.54,106.54-106.54Z"/>
  <path class="cls-1" d="m149.46,177.6c0,24.12,8.03,46.36,21.57,64.21,3.43-8.1,11.2-15.51,21.49-20.4.03-.01.06-.03.1-.04l36.1-14.88,9.08-4.02.11-2.64c-.5-.24-.98-.49-1.44-.75-3.41-1.86-6.55-4.22-9.34-7-7.45-7.45-11.66-17.23-11.95-27.65-5.63-1.2-9.83-5.8-9.83-11.29v-4.65c0-5.48,4.19-10.07,9.81-11.28v-.9c0-22.48,18.29-40.77,40.77-40.77.05,0,.1,0,.16,0,22.41.08,40.62,18.34,40.62,40.77v.86c5.7,1.15,9.97,5.78,9.97,11.32v4.65c0,5.55-4.3,10.19-10.01,11.33-.42,14.39-8.45,27.56-21.2,34.57-.53.29-1.02.54-1.5.78l.1,2.65,6.45,2.85,38.89,16.04s.06.03.09.04c10.27,4.87,18.02,12.25,21.5,20.39,13.51-17.85,21.55-40.1,21.55-64.2,0-58.84-47.69-106.54-106.53-106.54s-106.54,47.7-106.54,106.54Z"/>
  <path class="cls-2" d="m264.85,257.55l-8.94,17.65-8.94-17.65,4.99-34.79-12.86-16.49-8.84,3.91-36.1,14.88c-9.65,4.59-17.08,11.81-19.88,19.31-.11.26-.18.45-.24.65l-.23.68c20.13,22.22,47.62,35.11,77.54,36.34.04,0,.09,0,.13,0,.02,0,.06,0,.09,0,.01,0,.03,0,.04,0,.47.02.95.04,1.43.05,1.96.06,3.9.06,5.82,0,.51,0,.98-.03,1.46-.05,0,0,.16,0,.16,0,28.58-1.25,54.72-13.71,73.69-35.1,1.04-1.18,2.08-2.4,3.08-3.63-3.08-7.13-10.26-13.89-19.47-18.26l-38.89-16.04-6.21-2.74-12.86,16.49,4.99,34.79Z"/>
  <path class="cls-1" d="m319.48,221.42s-.06-.03-.09-.04l-38.89-16.04-6.45-2.85.05,1.26c.02.47-.13.93-.42,1.3l-.96,1.23,6.21,2.74,38.89,16.04c9.21,4.37,16.39,11.14,19.47,18.26-1,1.24-2.03,2.45-3.08,3.63-18.97,21.39-45.11,33.85-73.69,35.1,0,0-.16,0-.16,0-.47.02-.95.04-1.46.05-1.92.06-3.86.06-5.82,0-.49,0-.96-.03-1.43-.05,0,0-.02,0-.04,0-.03,0-.07,0-.09,0-.04,0-.09,0-.13,0-29.93-1.23-57.42-14.12-77.54-36.34l.23-.68c.06-.2.13-.39.24-.65,2.8-7.5,10.23-14.72,19.88-19.31l36.1-14.88,8.84-3.91-.95-1.22c-.29-.37-.44-.84-.42-1.31l.05-1.25-9.08,4.02-36.1,14.88s-.06.03-.1.04c-10.29,4.89-18.05,12.3-21.49,20.4-.15.36-.31.72-.44,1.08-.12.29-.23.59-.32.87l-.59,1.76c-.23.68-.07,1.43.4,1.96,20.91,23.55,49.71,37.24,81.09,38.54.13,0,.24.01.31.01.5.02,1.01.04,1.5.05,1,.03,2.01.04,3.02.04s2.02,0,3-.04c.51-.01,1.02-.03,1.44-.05.14,0,.27,0,.4-.01,29.56-1.3,56.68-14.24,76.37-36.43,1.35-1.52,2.67-3.1,3.94-4.71.43-.55.55-1.29.3-1.94-.14-.38-.31-.77-.47-1.15-3.47-8.14-11.23-15.53-21.5-20.39Z"/>
  <path class="cls-2" d="m255.91,218l1.86.92,12.29-15.76-.06-1.64c-4.5,1.68-9.22,2.54-14.09,2.54s-9.59-.86-14.09-2.54l-.07,1.64,12.29,15.76,1.86-.92Z"/>
  <path class="cls-1" d="m273.09,200.24c-1.01.48-2.04.89-3.08,1.28l.06,1.64-12.29,15.76,1.65.81.43,3.02,12.86-16.49.96-1.23c.29-.37.44-.83.42-1.3l-.05-1.26-.1-2.65c-.25.12-.49.25-.73.36-.04.02-.08.03-.12.05Z"/>
  <path class="cls-1" d="m238.16,205.04l.95,1.22,12.86,16.49.43-3.02,1.65-.81-12.29-15.76.07-1.64c-.96-.36-1.91-.74-2.85-1.17-.04-.01-.07-.03-.1-.04,0,0-.02,0-.02-.01-.32-.15-.64-.3-.95-.46l-.11,2.64-.05,1.25c-.02.47.13.94.42,1.31Z"/>
  <path class="cls-2" d="m302.66,153.15v-4.65c0-3.35-2.51-6.19-5.97-7.2v19.05c3.46-1.01,5.97-3.85,5.97-7.2Z"/>
  <path class="cls-1" d="m296.69,141.3c3.46,1.01,5.97,3.85,5.97,7.2v4.65c0,3.35-2.51,6.19-5.97,7.2v2.94c0,.4-.03.79-.04,1.19,5.72-1.14,10.01-5.78,10.01-11.33v-4.65c0-5.53-4.28-10.17-9.97-11.32v4.12Z"/>
  <path class="cls-2" d="m209.34,148.5v4.65c0,3.3,2.43,6.1,5.81,7.15v-18.95c-3.38,1.05-5.81,3.86-5.81,7.15Z"/>
  <path class="cls-1" d="m215.14,160.3c-3.38-1.05-5.81-3.86-5.81-7.15v-4.65c0-3.3,2.43-6.1,5.81-7.15v-4.13c-5.61,1.21-9.81,5.8-9.81,11.28v4.65c0,5.49,4.21,10.09,9.83,11.29-.01-.38-.03-.77-.03-1.15v-2.98Z"/>
  <path class="cls-2" d="m238.39,195.58c.66.37,1.34.71,2.06,1.04.04.02.09.03.13.05,4.83,2.24,9.99,3.38,15.34,3.38s10.64-1.16,15.51-3.46c.04-.02.08-.04.13-.05.64-.3,1.27-.62,1.97-1,11.81-6.5,19.16-18.86,19.16-32.25v-26.96c0-20.27-16.49-36.77-36.77-36.77-.05,0-.1,0-.15,0-20.21.08-36.62,16.54-36.62,36.77v26.96c0,9.78,3.84,19.01,10.8,25.97,2.51,2.51,5.35,4.64,8.44,6.33Z"/>
  <path class="cls-1" d="m238.88,200.3s.07.03.1.04c.94.43,1.89.82,2.85,1.17,4.5,1.68,9.22,2.54,14.09,2.54s9.59-.86,14.09-2.54c1.04-.39,2.07-.8,3.08-1.28.04-.02.09-.04.12-.05.24-.11.49-.24.73-.36.48-.24.97-.49,1.5-.78,12.75-7.02,20.78-20.19,21.2-34.57.01-.4.04-.79.04-1.19v-26.96c0-22.43-18.21-40.69-40.62-40.77-.05,0-.1,0-.16,0-22.48,0-40.77,18.29-40.77,40.77v26.96c0,.39.02.77.03,1.15.29,10.42,4.5,20.2,11.95,27.65,2.78,2.78,5.93,5.14,9.34,7,.46.26.95.51,1.44.75.31.16.63.31.95.46,0,0,.02,0,.02.01Zm-19.73-37.02v-26.96c0-20.23,16.42-36.69,36.62-36.77.05,0,.1,0,.15,0,20.27,0,36.77,16.49,36.77,36.77v26.96c0,13.39-7.34,25.75-19.16,32.25-.7.38-1.33.7-1.97,1-.04.02-.09.04-.13.05-4.88,2.3-10.09,3.46-15.51,3.46s-10.51-1.14-15.34-3.38c-.04-.02-.09-.04-.13-.05-.72-.33-1.41-.68-2.06-1.04-3.09-1.68-5.93-3.81-8.44-6.33-6.97-6.97-10.8-16.19-10.8-25.97Z"/>
  <polygon class="cls-1" points="255.91 275.2 264.85 257.55 259.86 222.75 259.42 219.73 257.78 218.92 255.91 218 254.05 218.92 252.41 219.73 251.97 222.75 246.98 257.55 255.91 275.2"/>
</svg>